<svg xmlns="http://www.w3.org/2000/svg" xmlns:xlink="http://www.w3.org/1999/xlink" zoomAndPan="magnify" preserveAspectRatio="xMidYMid meet" version="1.0" viewBox="53.49 148.46 267.75 78"><defs><g/><clipPath id="bfe87609a1"><path d="M 56.488281 151.464844 L 318.238281 151.464844 L 318.238281 223.464844 L 56.488281 223.464844 Z M 56.488281 151.464844 " clip-rule="nonzero"/></clipPath><clipPath id="f5766f3c51"><path d="M 63.558594 158.238281 L 216.773438 158.238281 L 216.773438 216.761719 L 63.558594 216.761719 Z M 63.558594 158.238281 " clip-rule="nonzero"/></clipPath></defs><g clip-path="url(#bfe87609a1)"><path stroke-linecap="butt" transform="matrix(0.750202, 0, 0, 0.749268, 56.489269, 151.465449)" fill="none" stroke-linejoin="miter" d="M -0.00131637 -0.000808127 L 348.904932 -0.000808127 L 348.904932 96.092952 L -0.00131637 96.092952 Z M -0.00131637 -0.000808127 " stroke="#ffffff" stroke-width="6" stroke-opacity="1" stroke-miterlimit="4"/></g><g clip-path="url(#f5766f3c51)"><path fill="#000000" d="M 63.558594 158.238281 L 216.773438 158.238281 L 216.773438 216.761719 L 63.558594 216.761719 Z M 63.558594 158.238281 " fill-opacity="1" fill-rule="nonzero"/></g><g fill="#ffffff" fill-opacity="1"><g transform="translate(87.079759, 195.749987)"><g><path d="M 7.03125 -7.625 C 5.09375 -8.1875 3.679688 -8.875 2.796875 -9.6875 C 1.921875 -10.5 1.484375 -11.5 1.484375 -12.6875 C 1.484375 -14.03125 2.019531 -15.144531 3.09375 -16.03125 C 4.175781 -16.914062 5.578125 -17.359375 7.296875 -17.359375 C 8.472656 -17.359375 9.519531 -17.128906 10.4375 -16.671875 C 11.363281 -16.210938 12.078125 -15.582031 12.578125 -14.78125 C 13.085938 -13.988281 13.34375 -13.117188 13.34375 -12.171875 L 11.078125 -12.171875 C 11.078125 -13.203125 10.742188 -14.015625 10.078125 -14.609375 C 9.421875 -15.203125 8.492188 -15.5 7.296875 -15.5 C 6.179688 -15.5 5.3125 -15.253906 4.6875 -14.765625 C 4.070312 -14.273438 3.765625 -13.59375 3.765625 -12.71875 C 3.765625 -12.019531 4.054688 -11.429688 4.640625 -10.953125 C 5.234375 -10.472656 6.242188 -10.03125 7.671875 -9.625 C 9.097656 -9.226562 10.210938 -8.785156 11.015625 -8.296875 C 11.816406 -7.816406 12.410156 -7.253906 12.796875 -6.609375 C 13.179688 -5.972656 13.375 -5.21875 13.375 -4.34375 C 13.375 -2.957031 12.832031 -1.847656 11.75 -1.015625 C 10.675781 -0.179688 9.234375 0.234375 7.421875 0.234375 C 6.242188 0.234375 5.144531 0.0078125 4.125 -0.4375 C 3.101562 -0.882812 2.316406 -1.5 1.765625 -2.28125 C 1.210938 -3.070312 0.9375 -3.96875 0.9375 -4.96875 L 3.203125 -4.96875 C 3.203125 -3.925781 3.582031 -3.101562 4.34375 -2.5 C 5.113281 -1.90625 6.140625 -1.609375 7.421875 -1.609375 C 8.609375 -1.609375 9.519531 -1.847656 10.15625 -2.328125 C 10.789062 -2.816406 11.109375 -3.476562 11.109375 -4.3125 C 11.109375 -5.15625 10.8125 -5.804688 10.21875 -6.265625 C 9.632812 -6.722656 8.570312 -7.175781 7.03125 -7.625 Z M 7.03125 -7.625 "/></g></g></g><g fill="#ffffff" fill-opacity="1"><g transform="translate(103.197516, 195.749987)"><g><path d="M 6.34375 -7.953125 L 4.25 -5.78125 L 4.25 0 L 1.984375 0 L 1.984375 -17.125 L 4.25 -17.125 L 4.25 -8.65625 L 11.84375 -17.125 L 14.578125 -17.125 L 7.84375 -9.5625 L 15.109375 0 L 12.40625 0 Z M 6.34375 -7.953125 "/></g></g></g><g fill="#ffffff" fill-opacity="1"><g transform="translate(120.126626, 195.749987)"><g><path d="M 4.40625 0 L 2.15625 0 L 2.15625 -17.125 L 4.40625 -17.125 Z M 4.40625 0 "/></g></g></g><g fill="#ffffff" fill-opacity="1"><g transform="translate(128.507091, 195.749987)"><g><path d="M 4.25 -1.84375 L 12.375 -1.84375 L 12.375 0 L 1.984375 0 L 1.984375 -17.125 L 4.25 -17.125 Z M 4.25 -1.84375 "/></g></g></g><g fill="#ffffff" fill-opacity="1"><g transform="translate(143.296098, 195.749987)"><g><path d="M 7.03125 -7.625 C 5.09375 -8.1875 3.679688 -8.875 2.796875 -9.6875 C 1.921875 -10.5 1.484375 -11.5 1.484375 -12.6875 C 1.484375 -14.03125 2.019531 -15.144531 3.09375 -16.03125 C 4.175781 -16.914062 5.578125 -17.359375 7.296875 -17.359375 C 8.472656 -17.359375 9.519531 -17.128906 10.4375 -16.671875 C 11.363281 -16.210938 12.078125 -15.582031 12.578125 -14.78125 C 13.085938 -13.988281 13.34375 -13.117188 13.34375 -12.171875 L 11.078125 -12.171875 C 11.078125 -13.203125 10.742188 -14.015625 10.078125 -14.609375 C 9.421875 -15.203125 8.492188 -15.5 7.296875 -15.5 C 6.179688 -15.5 5.3125 -15.253906 4.6875 -14.765625 C 4.070312 -14.273438 3.765625 -13.59375 3.765625 -12.71875 C 3.765625 -12.019531 4.054688 -11.429688 4.640625 -10.953125 C 5.234375 -10.472656 6.242188 -10.03125 7.671875 -9.625 C 9.097656 -9.226562 10.210938 -8.785156 11.015625 -8.296875 C 11.816406 -7.816406 12.410156 -7.253906 12.796875 -6.609375 C 13.179688 -5.972656 13.375 -5.21875 13.375 -4.34375 C 13.375 -2.957031 12.832031 -1.847656 11.75 -1.015625 C 10.675781 -0.179688 9.234375 0.234375 7.421875 0.234375 C 6.242188 0.234375 5.144531 0.0078125 4.125 -0.4375 C 3.101562 -0.882812 2.316406 -1.5 1.765625 -2.28125 C 1.210938 -3.070312 0.9375 -3.96875 0.9375 -4.96875 L 3.203125 -4.96875 C 3.203125 -3.925781 3.582031 -3.101562 4.34375 -2.5 C 5.113281 -1.90625 6.140625 -1.609375 7.421875 -1.609375 C 8.609375 -1.609375 9.519531 -1.847656 10.15625 -2.328125 C 10.789062 -2.816406 11.109375 -3.476562 11.109375 -4.3125 C 11.109375 -5.15625 10.8125 -5.804688 10.21875 -6.265625 C 9.632812 -6.722656 8.570312 -7.175781 7.03125 -7.625 Z M 7.03125 -7.625 "/></g></g></g><g fill="#ffffff" fill-opacity="1"><g transform="translate(159.413853, 195.749987)"><g><path d="M 11.65625 -7.90625 L 4.25 -7.90625 L 4.25 -1.84375 L 12.859375 -1.84375 L 12.859375 0 L 1.984375 0 L 1.984375 -17.125 L 12.75 -17.125 L 12.75 -15.265625 L 4.25 -15.265625 L 4.25 -9.765625 L 11.65625 -9.765625 Z M 11.65625 -7.90625 "/></g></g></g><g fill="#ffffff" fill-opacity="1"><g transform="translate(174.931903, 195.749987)"><g><path d="M 13.8125 -15.265625 L 8.3125 -15.265625 L 8.3125 0 L 6.0625 0 L 6.0625 -15.265625 L 0.578125 -15.265625 L 0.578125 -17.125 L 13.8125 -17.125 Z M 13.8125 -15.265625 "/></g></g></g><g fill="#ffffff" fill-opacity="1"><g transform="translate(236.098906, 197.268268)"><g><path d="M 18.671875 0 L 14.40625 0 L 14.40625 -8.859375 L 6.109375 -8.859375 L 6.109375 0 L 1.84375 0 L 1.84375 -20.671875 L 6.109375 -20.671875 L 6.109375 -12.296875 L 14.40625 -12.296875 L 14.40625 -20.671875 L 18.671875 -20.671875 Z M 18.671875 0 "/></g></g></g><g fill="#ffffff" fill-opacity="1"><g transform="translate(256.641094, 197.268268)"><g><path d="M 17.5 -20.671875 L 17.5 -7.0625 C 17.5 -4.789062 16.789062 -3 15.375 -1.6875 C 13.957031 -0.375 12.019531 0.28125 9.5625 0.28125 C 7.15625 0.28125 5.238281 -0.351562 3.8125 -1.625 C 2.394531 -2.90625 1.671875 -4.664062 1.640625 -6.90625 L 1.640625 -20.671875 L 5.90625 -20.671875 L 5.90625 -7.03125 C 5.90625 -5.675781 6.226562 -4.6875 6.875 -4.0625 C 7.53125 -3.445312 8.425781 -3.140625 9.5625 -3.140625 C 11.957031 -3.140625 13.175781 -4.398438 13.21875 -6.921875 L 13.21875 -20.671875 Z M 17.5 -20.671875 "/></g></g></g><g fill="#ffffff" fill-opacity="1"><g transform="translate(275.777835, 197.268268)"><g><path d="M 1.84375 0 L 1.84375 -20.671875 L 9.09375 -20.671875 C 11.59375 -20.671875 13.488281 -20.191406 14.78125 -19.234375 C 16.082031 -18.273438 16.734375 -16.863281 16.734375 -15 C 16.734375 -13.988281 16.472656 -13.097656 15.953125 -12.328125 C 15.429688 -11.554688 14.707031 -10.992188 13.78125 -10.640625 C 14.84375 -10.367188 15.675781 -9.832031 16.28125 -9.03125 C 16.894531 -8.226562 17.203125 -7.242188 17.203125 -6.078125 C 17.203125 -4.085938 16.566406 -2.582031 15.296875 -1.5625 C 14.035156 -0.539062 12.226562 -0.0195312 9.875 0 Z M 6.109375 -9 L 6.109375 -3.421875 L 9.75 -3.421875 C 10.757812 -3.421875 11.546875 -3.660156 12.109375 -4.140625 C 12.671875 -4.617188 12.953125 -5.28125 12.953125 -6.125 C 12.953125 -8.007812 11.972656 -8.96875 10.015625 -9 Z M 6.109375 -12.015625 L 9.25 -12.015625 C 11.40625 -12.046875 12.484375 -12.898438 12.484375 -14.578125 C 12.484375 -15.515625 12.207031 -16.1875 11.65625 -16.59375 C 11.113281 -17.007812 10.257812 -17.21875 9.09375 -17.21875 L 6.109375 -17.21875 Z M 6.109375 -12.015625 "/></g></g></g></svg>